<svg xmlns="http://www.w3.org/2000/svg" viewBox="0 0 1108.48 410.6"><defs><style>.cls-1{fill:#2eaaa9;fill-rule:evenodd;}.cls-1,.cls-2{opacity:0.23;}.cls-2,.cls-4{fill:none;}.cls-2{stroke:#207e7c;stroke-linejoin:round;stroke-width:2.04px;}.cls-3{font-size:18px;font-family:MicrosoftJhengHeiBold, Microsoft JhengHei;}.cls-3,.cls-5{fill:#404041;}.cls-4{stroke:#404041;stroke-miterlimit:10;stroke-width:2px;}.cls-6{font-size:17px;fill:#040000;}.cls-6,.cls-9{font-family:MicrosoftJhengHeiRegular, Microsoft JhengHei;}.cls-7{letter-spacing:-0.04em;}.cls-8{fill:#27a29d;}.cls-9{font-size:15.28px;fill:#fff;}.cls-10{letter-spacing:-0.08em;}.cls-11{letter-spacing:-0.01em;}.cls-12{letter-spacing:0em;}.cls-13{letter-spacing:-0.03em;}.cls-14{letter-spacing:-0.03em;}.cls-15{letter-spacing:0em;}.cls-16{letter-spacing:0em;}.cls-17{letter-spacing:-0.04em;}.cls-18{letter-spacing:0em;}.cls-19{letter-spacing:-0.02em;}.cls-20{letter-spacing:-0.03em;}.cls-21{letter-spacing:-0.06em;}.cls-22{letter-spacing:-0.02em;}</style></defs><g id="圖層_2" data-name="圖層 2"><g id="圖層_1-2" data-name="圖層 1"><polygon class="cls-1" points="1.02 1.02 1107.46 1.02 1107.46 409.58 1.02 409.58 1.02 1.02 1.02 1.02"/><polygon class="cls-2" points="1.02 1.02 1107.46 1.02 1107.46 409.58 1.02 409.58 1.02 1.02 1.02 1.02"/><text class="cls-3" transform="translate(153.04 40.99)">Flash<tspan x="11.79" y="18">size</tspan></text><text class="cls-3" transform="translate(924.13 359.09)">Pin <tspan x="0" y="18">count</tspan></text><polyline class="cls-4" points="191.31 79.74 191.31 320.41 964.32 320.41"/><polygon class="cls-5" points="183.33 82.08 191.31 68.26 199.28 82.08 183.33 82.08"/><polygon class="cls-5" points="961.98 328.39 975.8 320.41 961.98 312.43 961.98 328.39"/><text class="cls-6" transform="translate(126.29 204.17)">512 KB</text><text class="cls-6" transform="translate(116.43 152.95)">1024 KB</text><text class="cls-6" transform="translate(126.29 255.39)">256 KB</text><text class="cls-6" transform="translate(415.03 358.2)">48-pin <tspan class="cls-7" x="56.79" y="0">L</tspan><tspan x="64.75" y="0">QFP</tspan><tspan x="12.73" y="23">7 x 7 mm</tspan></text><rect class="cls-8" x="392.22" y="182.61" width="143.35" height="32.27"/><text class="cls-9" transform="translate(404.89 204.38)"><tspan class="cls-10">A</tspan><tspan x="9.4" y="0">T32F403</tspan><tspan class="cls-11" x="70.3" y="0">A</tspan><tspan x="80.68" y="0">C</tspan><tspan class="cls-12" x="90.89" y="0">E</tspan><tspan x="99.24" y="0">T7</tspan></text><rect class="cls-8" x="392.22" y="132.02" width="143.35" height="32.27"/><text class="cls-9" transform="translate(404.9 153.78)"><tspan class="cls-10">A</tspan><tspan x="9.4" y="0">T32F403</tspan><tspan class="cls-11" x="70.3" y="0">A</tspan><tspan class="cls-13" x="80.68" y="0">C</tspan><tspan class="cls-14" x="90.45" y="0">G</tspan><tspan class="cls-15" x="101.34" y="0">T7</tspan></text><rect class="cls-8" x="392.22" y="233.21" width="143.35" height="32.27"/><text class="cls-9" transform="translate(404.89 254.97)"><tspan class="cls-10">A</tspan><tspan x="9.4" y="0">T32F403</tspan><tspan class="cls-11" x="70.3" y="0">A</tspan><tspan class="cls-13" x="80.68" y="0">C</tspan><tspan x="90.45" y="0">CT7</tspan></text><text class="cls-6" transform="translate(255.87 358.2)">48-pin QFN<tspan x="10.49" y="23">6 x 6 mm</tspan></text><rect class="cls-8" x="230.82" y="182.61" width="143.34" height="32.27"/><text class="cls-9" transform="translate(243.49 204.38)"><tspan class="cls-10">A</tspan><tspan x="9.4" y="0">T32F403</tspan><tspan class="cls-11" x="70.3" y="0">A</tspan><tspan x="80.68" y="0">CEU7</tspan></text><rect class="cls-8" x="230.82" y="132.02" width="143.34" height="32.27"/><text class="cls-9" transform="translate(243.49 153.78)"><tspan class="cls-10">A</tspan><tspan x="9.4" y="0">T32F403</tspan><tspan class="cls-11" x="70.3" y="0">A</tspan><tspan class="cls-13" x="80.68" y="0">C</tspan><tspan class="cls-16" x="90.45" y="0">GU7</tspan></text><rect class="cls-8" x="230.82" y="233.21" width="143.34" height="32.27"/><text class="cls-9" transform="translate(243.49 254.97)"><tspan class="cls-10">A</tspan><tspan x="9.4" y="0">T32F403</tspan><tspan class="cls-11" x="70.3" y="0">A</tspan><tspan class="cls-13" x="80.68" y="0">C</tspan><tspan x="90.45" y="0">CU7</tspan></text><text class="cls-6" transform="translate(579.12 358.2)">64-pin <tspan class="cls-17" x="56.79" y="0">L</tspan><tspan x="64.75" y="0">QFP</tspan><tspan x="2.88" y="23">10 x 10 mm</tspan></text><rect class="cls-8" x="553.63" y="182.61" width="148.73" height="32.27"/><text class="cls-9" transform="translate(568.99 204.38)"><tspan class="cls-10">A</tspan><tspan x="9.4" y="0">T32F403AR</tspan><tspan class="cls-12" x="90.71" y="0">E</tspan><tspan class="cls-18" x="99.06" y="0">T7</tspan></text><rect class="cls-8" x="553.63" y="132.02" width="148.73" height="32.27"/><text class="cls-9" transform="translate(568.99 153.78)"><tspan class="cls-10">A</tspan><tspan x="9.4" y="0">T32F403A</tspan><tspan class="cls-19" x="80.89" y="0">R</tspan><tspan class="cls-20" x="90.48" y="0">G</tspan><tspan class="cls-18" x="101.37" y="0">T7</tspan></text><rect class="cls-8" x="553.63" y="233.21" width="148.73" height="32.27"/><text class="cls-9" transform="translate(568.99 254.97)"><tspan class="cls-10">A</tspan><tspan x="9.4" y="0">T32F403A</tspan><tspan class="cls-19" x="80.89" y="0">R</tspan><tspan x="90.48" y="0">CT7</tspan></text><text class="cls-6" transform="translate(738.3 358.2)">100-pin <tspan class="cls-17" x="66.65" y="0">L</tspan><tspan x="74.61" y="0">QFP</tspan><tspan x="7.81" y="23">14 x 14 mm</tspan></text><rect class="cls-8" x="720.42" y="182.61" width="143.34" height="32.27"/><text class="cls-9" transform="translate(733.09 204.38)"><tspan class="cls-10">A</tspan><tspan x="9.4" y="0">T32F403</tspan><tspan class="cls-21" x="70.3" y="0">A</tspan><tspan x="79.95" y="0">V</tspan><tspan class="cls-12" x="90.16" y="0">E</tspan><tspan x="98.51" y="0">T7</tspan></text><rect class="cls-8" x="720.42" y="132.02" width="143.34" height="32.27"/><text class="cls-9" transform="translate(733.09 153.78)"><tspan class="cls-10">A</tspan><tspan x="9.4" y="0">T32F403</tspan><tspan class="cls-21" x="70.3" y="0">A</tspan><tspan class="cls-22" x="79.95" y="0">V</tspan><tspan class="cls-20" x="89.81" y="0">G</tspan><tspan class="cls-18" x="100.71" y="0">T7</tspan></text><rect class="cls-8" x="720.42" y="233.21" width="143.34" height="32.27"/><text class="cls-9" transform="translate(733.09 254.97)"><tspan class="cls-10">A</tspan><tspan x="9.4" y="0">T32F403</tspan><tspan class="cls-21" x="70.3" y="0">A</tspan><tspan class="cls-22" x="79.95" y="0">V</tspan><tspan class="cls-18" x="89.81" y="0">CT7</tspan></text></g></g></svg>